<?xml version="1.0" encoding="iso-8859-1"?>
<!-- Generator: Adobe Illustrator 17.1.0, SVG Export Plug-In . SVG Version: 6.00 Build 0)  -->
<!DOCTYPE svg PUBLIC "-//W3C//DTD SVG 1.1//EN" "http://www.w3.org/Graphics/SVG/1.1/DTD/svg11.dtd">
<svg version="1.1" id="Capa_1" xmlns="http://www.w3.org/2000/svg" xmlns:xlink="http://www.w3.org/1999/xlink" x="0px" y="0px"
	 viewBox="0 0 410 410" style="enable-background:new 0 0 410 410;" xml:space="preserve">
<g>
	<path d="M148.909,178.43c0-15.916-12.948-28.864-28.863-28.864c-15.916,0-28.864,12.948-28.864,28.864
		c0,15.915,12.948,28.863,28.864,28.863C135.961,207.293,148.909,194.345,148.909,178.43z"/>
	<path d="M0,72.941v264.118h410V72.941H0z M58,178.43c0-34.267,27.779-62.045,62.045-62.045c34.267,0,62.045,27.779,62.045,62.045
		s-27.779,62.045-62.045,62.045C85.779,240.475,58,212.696,58,178.43z M79.832,310.527l15.948-40.609H314.22l15.949,40.609H79.832z
		 M289.955,240.475c-34.267,0-62.045-27.779-62.045-62.045s27.779-62.045,62.045-62.045c34.267,0,62.045,27.779,62.045,62.045
		S324.221,240.475,289.955,240.475z"/>
	<path d="M289.954,149.566c-15.915,0-28.863,12.948-28.863,28.864c0,15.915,12.948,28.863,28.863,28.863
		c15.916,0,28.864-12.948,28.864-28.863C318.818,162.514,305.87,149.566,289.954,149.566z"/>
</g>
<g>
</g>
<g>
</g>
<g>
</g>
<g>
</g>
<g>
</g>
<g>
</g>
<g>
</g>
<g>
</g>
<g>
</g>
<g>
</g>
<g>
</g>
<g>
</g>
<g>
</g>
<g>
</g>
<g>
</g>
</svg>
