<?xml version="1.0" encoding="UTF-8" standalone="no"?>
<svg
   xmlns:dc="http://purl.org/dc/elements/1.1/"
   xmlns:cc="http://creativecommons.org/ns#"
   xmlns:rdf="http://www.w3.org/1999/02/22-rdf-syntax-ns#"
   xmlns:svg="http://www.w3.org/2000/svg"
   xmlns="http://www.w3.org/2000/svg"
   xmlns:sodipodi="http://sodipodi.sourceforge.net/DTD/sodipodi-0.dtd"
   xmlns:inkscape="http://www.inkscape.org/namespaces/inkscape"
   version="1.1"
   id="svg170"
   xml:space="preserve"
   width="520"
   height="328.56"
   viewBox="0 0 520 328.56"
   sodipodi:docname="IMG.svg"
   inkscape:version="1.0.2 (1.0.2+r75+1)"><metadata
     id="metadata176"><rdf:RDF><cc:Work
         rdf:about=""><dc:format>image/svg+xml</dc:format><dc:type
           rdf:resource="http://purl.org/dc/dcmitype/StillImage" /><dc:title></dc:title></cc:Work></rdf:RDF></metadata><defs
     id="defs174" /><sodipodi:namedview
     pagecolor="#ffffff"
     bordercolor="#666666"
     borderopacity="1"
     objecttolerance="10"
     gridtolerance="10"
     guidetolerance="10"
     inkscape:pageopacity="0"
     inkscape:pageshadow="2"
     inkscape:window-width="1848"
     inkscape:window-height="1016"
     id="namedview172"
     showgrid="false"
     inkscape:zoom="2.3192308"
     inkscape:cx="260"
     inkscape:cy="164.28"
     inkscape:window-x="72"
     inkscape:window-y="27"
     inkscape:window-maximized="1"
     inkscape:current-layer="g178" /><g
     id="g178"
     inkscape:groupmode="layer"
     inkscape:label="ink_ext_XXXXXX"
     transform="matrix(1.3333333,0,0,-1.3333333,0,328.56)"><g
       id="g180"
       transform="scale(0.1)"><path
         d="m 2754.4,1315.82 c -107.31,0 -194.27,86.95 -194.27,194.28 0,107.31 86.96,194.27 194.27,194.27 107.33,0 194.28,-86.96 194.28,-194.27 0,-107.33 -86.95,-194.28 -194.28,-194.28 z m -1129.34,25.12 c 16.68,50.38 25.72,104.24 25.72,160.24 0,54.67 -8.57,107.26 -24.52,156.63 h 436.19 c -15.95,-49.37 -24.52,-101.96 -24.52,-156.63 0,-56 8.97,-109.86 25.65,-160.24 z m -527.49,-25.12 c -107.328,0 -194.277,86.95 -194.277,194.28 0,107.31 86.949,194.27 194.277,194.27 107.25,0 194.27,-86.96 194.27,-194.27 0,-107.33 -87.02,-194.28 -194.27,-194.28 z M 3822.39,990.91 h -18.95 v 1330.93 c 0,70.27 -57.01,127.28 -127.3,127.28 H 223.855 c -70.339,0 -127.2808,-57.01 -127.2808,-127.28 V 990.91 H 77.5469 c -34.5,0 -62.5039,-28 -62.5039,-62.5 V 313.148 c 0,-34.5 28.0039,-62.5 62.5039,-62.5 h 19.0273 v -23.437 c 0,-70.289 56.9418,-127.2891 127.2808,-127.2891 H 680.273 L 794.492,47.6016 C 841.324,26.1602 892.305,15.0391 943.816,15.0391 H 2946.81 c 51.51,0 102.5,11.1211 149.32,32.5625 l 114.29,52.3203 h 465.72 c 70.29,0 127.3,57.0001 127.3,127.2891 v 23.437 h 18.95 c 34.57,0 62.57,28 62.57,62.5 V 928.41 c 0,34.5 -28,62.5 -62.57,62.5"
         style="fill:#272727;fill-opacity:1;fill-rule:nonzero;stroke:none"
         id="path182" /><path
         d="m 1645.45,1355.98 h 397.74 c -13.48,46.92 -20.3,95.67 -20.3,145.2 0,48.21 6.49,95.74 19.33,141.59 h -395.73 c 12.84,-45.85 19.33,-93.38 19.33,-141.59 0,-49.43 -6.84,-98.18 -20.37,-145.2 z m 438.96,-30.09 h -480.18 l 6.55,19.78 c 16.55,50 24.96,102.33 24.96,155.51 0,52 -8.01,103.14 -23.8,152 l -6.35,19.68 h 477.54 l -6.36,-19.68 c -15.79,-48.86 -23.8,-100 -23.8,-152 0,-53.31 8.39,-105.63 24.9,-155.51 z m -986.85,363.44 c -98.826,0 -179.232,-80.4 -179.232,-179.23 0,-98.83 80.406,-179.24 179.232,-179.24 98.83,0 179.25,80.41 179.25,179.24 0,98.83 -80.42,179.23 -179.25,179.23 z m 0,-388.56 c -115.415,0 -209.306,93.9 -209.306,209.33 0,115.41 93.891,209.31 209.306,209.31 115.42,0 209.32,-93.9 209.32,-209.31 0,-115.43 -93.9,-209.33 -209.32,-209.33 z m 1656.84,388.56 c -98.82,0 -179.23,-80.4 -179.23,-179.23 0,-98.83 80.41,-179.24 179.23,-179.24 98.84,0 179.24,80.41 179.24,179.24 0,98.83 -80.4,179.23 -179.24,179.23 z m 0,-388.56 c -115.42,0 -209.31,93.9 -209.31,209.33 0,115.41 93.89,209.31 209.31,209.31 115.43,0 209.32,-93.9 209.32,-209.31 0,-115.43 -93.89,-209.33 -209.32,-209.33 z M 77.5469,975.859 c -26.1758,0 -47.4688,-21.281 -47.4688,-47.449 V 313.148 c 0,-26.168 21.293,-47.457 47.4688,-47.457 h 34.0621 v -38.48 c 0,-61.902 50.36,-112.25 112.246,-112.25 h 459.7 L 800.758,61.2695 C 845.336,40.8711 894.801,30.0781 943.824,30.0781 H 2946.81 c 49.01,0 98.47,10.793 143.05,31.1914 l 117.28,53.6915 h 469 c 61.9,0 112.26,50.348 112.26,112.25 v 38.48 h 33.99 c 26.2,0 47.53,21.289 47.53,47.457 V 928.41 c 0,26.168 -21.33,47.449 -47.53,47.449 H 3788.4 V 2321.84 c 0,61.88 -50.36,112.24 -112.26,112.24 H 223.855 c -61.886,0 -112.246,-50.36 -112.246,-112.24 V 975.859 Z M 2946.81,0 H 943.824 C 890.52,0 836.715,11.7305 788.23,33.9102 L 676.992,84.8789 H 223.855 c -78.48,0 -142.3198,63.8401 -142.3198,142.3321 v 8.398 H 77.5469 C 34.7891,235.609 0,270.398 0,313.148 V 928.41 c 0,42.75 34.7891,77.55 77.5469,77.55 h 3.9883 v 1315.88 c 0,78.47 63.8398,142.32 142.3198,142.32 H 3676.14 c 78.48,0 142.34,-63.85 142.34,-142.32 V 1005.96 h 3.91 c 42.8,0 77.61,-34.8 77.61,-77.55 V 313.148 c 0,-42.75 -34.81,-77.539 -77.61,-77.539 h -3.91 v -8.398 c 0,-78.492 -63.86,-142.3321 -142.34,-142.3321 H 3213.7 L 3102.39,33.9102 C 3053.91,11.7305 3000.12,0 2946.81,0"
         style="fill:#272727;fill-opacity:1;fill-rule:nonzero;stroke:none"
         id="path184" /><path
         d="m 2754.4,1315.82 c -107.31,0 -194.27,86.95 -194.27,194.28 0,107.31 86.96,194.27 194.27,194.27 107.33,0 194.28,-86.96 194.28,-194.27 0,-107.33 -86.95,-194.28 -194.28,-194.28 z m -1129.34,25.12 c 16.68,50.38 25.72,104.24 25.72,160.24 0,54.67 -8.57,107.26 -24.52,156.63 h 436.19 c -15.95,-49.37 -24.52,-101.96 -24.52,-156.63 0,-56 8.97,-109.86 25.65,-160.24 z m -527.49,-25.12 c -107.328,0 -194.277,86.95 -194.277,194.28 0,107.31 86.949,194.27 194.277,194.27 107.25,0 194.27,-86.96 194.27,-194.27 0,-107.33 -87.02,-194.28 -194.27,-194.28 z m 2399.37,992.62 H 403.063 L 241.68,2149.87 V 964.109 H 3658.26 V 2149.87 l -161.32,158.57"
         style="fill:#ffffff;fill-opacity:1;fill-rule:nonzero;stroke:none"
         id="path186" /><path
         d="m 314.145,1040.15 h 341.109 v 401.72 H 314.145 Z m 363.671,-22.56 H 291.582 v 446.84 h 386.234 v -446.84"
         style="fill:#272727;fill-opacity:1;fill-rule:nonzero;stroke:none"
         id="path188" /><path
         d="m 237.688,1880.26 -0.293,30.08 3420.235,33.49 0.29,-30.08 -3420.232,-33.49"
         style="fill:#272727;fill-opacity:1;fill-rule:nonzero;stroke:none"
         id="path190" /><path
         d="M 3182.64,2011.3 H 1371.63 v 22.56 h 1811.01 v -22.56"
         style="fill:#272727;fill-opacity:1;fill-rule:nonzero;stroke:none"
         id="path192" /><path
         d="M 3146.91,2131.88 H 1436.39 v 22.57 h 1710.52 v -22.57"
         style="fill:#272727;fill-opacity:1;fill-rule:nonzero;stroke:none"
         id="path194" /><path
         d="m 403.035,2308.41 -161.336,-158.54 -4.16,-254.57 803.101,7.86 188.72,404.34 -826.325,0.91"
         style="fill:#272727;fill-opacity:1;fill-rule:nonzero;stroke:none"
         id="path196" /><path
         d="m 245.434,2148.26 -4.079,-249.17 796.885,7.81 185.22,396.85 -818.89,0.9 z m -11.711,-256.76 4.242,259.97 163.539,160.71 h 1.531 l 832.225,-0.93 -192.21,-411.83 -2.37,-0.02 -806.957,-7.9"
         style="fill:#272727;fill-opacity:1;fill-rule:nonzero;stroke:none"
         id="path198" /><path
         d="m 1110.07,1893.62 -40.89,19.08 196.74,421.53 40.88,-19.09 -196.73,-421.52"
         style="fill:#272727;fill-opacity:1;fill-rule:nonzero;stroke:none"
         id="path200" /><path
         d="m 1161.37,1898.39 -20.46,9.54 193.81,415.25 20.45,-9.54 -193.8,-415.25"
         style="fill:#272727;fill-opacity:1;fill-rule:nonzero;stroke:none"
         id="path202" /><path
         d="m 1207.62,1898.39 -20.45,9.54 193.81,415.25 20.45,-9.54 -193.81,-415.25"
         style="fill:#272727;fill-opacity:1;fill-rule:nonzero;stroke:none"
         id="path204" /><path
         d="m 3344.1,2159.91 29.29,64.74 29.29,-64.74 z m 102.52,-97.13 h 64.48 l -92.95,205.45 h -25.04 -39.44 -25.05 l -92.95,-205.45 h 64.49 l 20.84,46.05 h 104.79 l 20.83,-46.05"
         style="fill:#272727;fill-opacity:1;fill-rule:nonzero;stroke:none"
         id="path206" /><path
         d="m 3381.5,2023.02 v -38.26 c 16.13,2.35 36.62,8.33 36.62,19.12 0,10.38 -19.98,16.69 -36.62,19.14 z m -11.29,-61.96 c -2.91,0 -5.72,1.13 -7.82,3.15 -2.2,2.13 -3.45,5.07 -3.45,8.13 v 63.08 c 0,3.06 1.25,6 3.45,8.13 2.21,2.13 5.18,3.24 8.25,3.14 7.17,-0.26 70.03,-3.77 70.03,-42.81 0,-39.04 -62.86,-42.54 -70.03,-42.81 -0.14,-0.01 -0.28,-0.01 -0.43,-0.01"
         style="fill:#272727;fill-opacity:1;fill-rule:nonzero;stroke:none"
         id="path208" /><path
         d="m 3343.26,1960.61 h -22.56 v 57.57 h 22.56 v -57.57"
         style="fill:#272727;fill-opacity:1;fill-rule:nonzero;stroke:none"
         id="path210" /><path
         d="m 3342.17,2038.77 c 0,-5.63 -4.56,-10.19 -10.2,-10.19 -5.62,0 -10.18,4.56 -10.18,10.19 0,5.63 4.56,10.19 10.18,10.19 5.64,0 10.2,-4.56 10.2,-10.19"
         style="fill:#272727;fill-opacity:1;fill-rule:nonzero;stroke:none"
         id="path212" /><path
         d="M 3523.74,1961.06 H 3464 c -6.23,0 -11.28,5.05 -11.28,11.28 v 59.04 c 0,6.23 5.05,11.27 11.28,11.27 h 59.74 v -22.56 h -48.46 v -36.47 h 48.46 v -22.56"
         style="fill:#272727;fill-opacity:1;fill-rule:nonzero;stroke:none"
         id="path214" /><path
         d="m 3277.34,1957.7 h -49.2 v 22.57 h 49.2 c 3.59,0 6.09,2.22 6.09,4.22 0,2 -2.5,4.22 -6.09,4.22 h -24.28 c -15.8,0 -28.67,12.02 -28.67,26.79 0,15.14 12.87,27.15 28.67,27.15 h 49.61 v -22.56 h -49.61 c -3.6,0 -6.1,-2.23 -6.1,-4.22 0,-2.37 2.5,-4.59 6.1,-4.59 h 24.28 c 15.79,0 28.65,-12.02 28.65,-26.79 0,-14.77 -12.86,-26.79 -28.65,-26.79"
         style="fill:#272727;fill-opacity:1;fill-rule:nonzero;stroke:none"
         id="path216" /><path
         d="m 509.332,2131.37 c -10.824,-29.85 -30.41,-50.14 -43.746,-45.31 -13.328,4.84 -15.367,32.96 -4.539,62.82 10.824,29.85 30.406,50.14 43.742,45.3 13.332,-4.83 15.367,-32.96 4.543,-62.81 z m 13.18,127.15 c -68.668,-1.47 -100.492,-36.64 -125.614,-88.56 -25.121,-51.91 -27.367,-144.21 56.946,-139.01 l -72.02,-93.79 h 75.367 c 0,0 102.403,117.75 122.258,190.93 19.539,72.02 11.727,131.88 -56.937,130.43"
         style="fill:#ffffff;fill-opacity:1;fill-rule:nonzero;stroke:none"
         id="path218" /><path
         d="m 738.457,2080.41 c -16.816,-38.8 -39.918,-66.14 -51.586,-61.09 -11.676,5.07 -7.508,40.62 9.313,79.41 16.82,38.8 39.914,66.15 51.589,61.09 11.676,-5.06 7.5,-40.61 -9.316,-79.41 z m 91.762,80.36 c -2.281,27.7 -11.688,58.11 -35.317,74.98 -42.113,30.08 -94.636,-3.09 -124.222,-35.09 -43.895,-47.47 -71.61,-117.3 -66.262,-182.28 2.062,-25.01 9.742,-51.74 28.551,-69.42 16.023,-15.06 38,-19.93 59.265,-15.59 55.7,11.37 96.102,67.37 117.282,116.23 15.019,34.65 23.82,73.28 20.703,111.17"
         style="fill:#ffffff;fill-opacity:1;fill-rule:nonzero;stroke:none"
         id="path220" /><path
         d="m 973.633,2001.21 -24.121,-48.97 h -15.004 l 27.062,54.87 12.063,-5.9"
         style="fill:#ffffff;fill-opacity:1;fill-rule:nonzero;stroke:none"
         id="path222" /><path
         d="m 1047.26,1988.55 c -5.3,-15.34 -9.92,-27.94 -13.07,-36.31 h -14.2 c 2.95,7.9 8.17,22.24 14.6,40.73 0.41,1.21 0.61,2.08 0.74,2.74 -5.63,-0.06 -21.5,-6.82 -35.842,-15.47 l -13.8,-28 h -15.004 l 27.066,54.87 12.05,-5.9 -0.06,-0.13 c 13.4,6.43 27.74,10.85 34.77,5.15 3.15,-2.54 6.23,-7.63 2.75,-17.68"
         style="fill:#ffffff;fill-opacity:1;fill-rule:nonzero;stroke:none"
         id="path224" /><path
         d="m 924.527,1988.55 c -5.293,-15.34 -9.847,-27.94 -13,-36.31 h -14.265 c 2.941,7.9 8.234,22.24 14.601,40.73 0.473,1.21 0.672,2.08 0.739,2.74 -5.293,-0.06 -19.629,-6.09 -33.293,-13.99 -4.289,-12.26 -7.977,-22.38 -10.657,-29.48 h -14.336 c 2.879,7.57 7.84,21.03 13.868,38.39 l -0.063,0.06 c 0.063,0.07 0.063,0.07 0.133,0.07 0.266,0.74 0.469,1.47 0.734,2.21 0.403,1.21 0.668,2.08 0.739,2.74 -5.629,-0.06 -21.434,-6.82 -35.84,-15.47 l -13.805,-28 h -14.937 l 27.066,54.87 11.992,-5.9 v -0.13 c 13.332,6.43 27.668,10.85 34.766,5.15 1.746,-1.4 3.418,-3.68 4.023,-7.16 14.403,7.43 31.086,13.39 38.856,7.16 3.148,-2.54 6.16,-7.63 2.679,-17.68"
         style="fill:#ffffff;fill-opacity:1;fill-rule:nonzero;stroke:none"
         id="path226" /><path
         d="M 643.535,1372.9 H 329.512 v 58.62 h 314.023 v -58.62"
         style="fill:#272727;fill-opacity:1;fill-rule:nonzero;stroke:none"
         id="path228" /><path
         d="M 643.535,1050.51 H 329.512 v 58.61 h 314.023 v -58.61"
         style="fill:#272727;fill-opacity:1;fill-rule:nonzero;stroke:none"
         id="path230" /><path
         d="m 623.438,1344.23 c -5.063,-9.39 -12.579,-43.06 -12.579,-99.03 0,-55.98 7.516,-89.65 12.579,-99.04 5.058,9.39 12.574,43.06 12.574,99.04 0,55.97 -7.516,89.64 -12.574,99.03 z m 0,-214.99 c -26.293,0 -27.625,96.59 -27.625,115.96 0,19.36 1.332,115.96 27.625,115.96 26.289,0 27.625,-96.6 27.625,-115.96 0,-19.37 -1.336,-115.96 -27.625,-115.96"
         style="fill:#272727;fill-opacity:1;fill-rule:nonzero;stroke:none"
         id="path232" /><path
         d="m 587.148,1129.24 h -35.992 v 229.13 h 35.992 v -15.04 h -20.941 v -199.05 h 20.941 v -15.04"
         style="fill:#272727;fill-opacity:1;fill-rule:nonzero;stroke:none"
         id="path234" /><path
         d="m 583.242,1237.68 h -24.558 v 15.04 h 24.558 v -15.04"
         style="fill:#272727;fill-opacity:1;fill-rule:nonzero;stroke:none"
         id="path236" /><path
         d="m 466,1129.24 h -35.988 v 229.13 H 466 v -15.04 H 445.063 V 1144.28 H 466 v -15.04"
         style="fill:#272727;fill-opacity:1;fill-rule:nonzero;stroke:none"
         id="path238" /><path
         d="m 462.102,1237.68 h -24.567 v 15.04 h 24.567 v -15.04"
         style="fill:#272727;fill-opacity:1;fill-rule:nonzero;stroke:none"
         id="path240" /><path
         d="m 406.539,1130.48 h -15.055 v 227.89 h 24.555 v -15.04 h -9.5 v -212.85"
         style="fill:#272727;fill-opacity:1;fill-rule:nonzero;stroke:none"
         id="path242" /><path
         d="m 493.223,1344.15 h 9.039 c 10.531,0 19.617,-7.75 21.14,-18.03 2.911,-19.65 7.668,-67.63 -10.98,-88.84 -4.996,-5.68 -11.313,-8.99 -19.199,-10.02 z m 0,-213.67 v 62.91 l 33.496,-62.91 h 15.176 l -44.645,83.84 c 10.098,1.79 18.555,6.52 25.234,14.11 21.543,24.51 18.129,72.95 14.176,99.65 -2.488,16.8 -17.281,29.47 -34.398,29.47 h -22.438 v -227.07 h 13.399"
         style="fill:#272727;fill-opacity:1;fill-rule:nonzero;stroke:none"
         id="path244" /><path
         d="m 399.016,1343.33 h -34.754 v 15.04 h 34.754 v -15.04"
         style="fill:#272727;fill-opacity:1;fill-rule:nonzero;stroke:none"
         id="path246" /><path
         d="m 339.281,1295.69 c -0.511,32.44 24.039,62.14 24.039,62.14 h -15.863 c -8.519,-12.22 -21.988,-35.82 -21.574,-62.35 0.312,-20.21 10.972,-43.69 21.281,-66.39 8.578,-18.9 16.68,-36.74 16.68,-48.51 0,-15.81 -20.426,-37.16 -35.383,-50.25 h 19.746 c 13.902,13.81 29.035,32.81 29.035,50.25 0,14.67 -8.683,33.79 -17.879,54.04 -9.738,21.46 -19.812,43.65 -20.082,61.07"
         style="fill:#272727;fill-opacity:1;fill-rule:nonzero;stroke:none"
         id="path248" /><path
         d="m 1097.56,1689.32 c -98.826,0 -179.232,-80.39 -179.232,-179.22 0,-98.83 80.406,-179.24 179.232,-179.24 98.83,0 179.25,80.41 179.25,179.24 0,98.83 -80.42,179.22 -179.25,179.22 z m 0,-388.55 c -115.415,0 -209.306,93.9 -209.306,209.33 0,115.41 93.891,209.31 209.306,209.31 115.42,0 209.32,-93.9 209.32,-209.31 0,-115.43 -93.9,-209.33 -209.32,-209.33"
         style="fill:#272727;fill-opacity:1;fill-rule:nonzero;stroke:none"
         id="path250" /><path
         d="m 2754.4,1689.32 c -98.82,0 -179.22,-80.39 -179.22,-179.22 0,-98.83 80.4,-179.24 179.22,-179.24 98.84,0 179.24,80.41 179.24,179.24 0,98.83 -80.4,179.22 -179.24,179.22 z m 0,-388.55 c -115.42,0 -209.3,93.9 -209.3,209.33 0,115.41 93.88,209.31 209.3,209.31 115.43,0 209.32,-93.9 209.32,-209.31 0,-115.43 -93.89,-209.33 -209.32,-209.33"
         style="fill:#272727;fill-opacity:1;fill-rule:nonzero;stroke:none"
         id="path252" /><path
         d="M 3776.63,2321.81 V 227.211 l -3.41,65.437 -2.57,65.461 -5.07,130.922 -6.3,261.828 -1.56,65.45 -0.59,65.461 -1.03,130.91 -2,261.83 2.04,261.82 c 1.01,87.28 0.51,174.55 3.22,261.83 l 6.27,261.82 5.05,130.92 2.57,65.46 3.38,65.45"
         style="fill:#ffffff;fill-opacity:1;fill-rule:nonzero;stroke:none"
         id="path254" /><path
         d="M 143.441,227.211 V 2310.3 c -0.519,14.72 0.543,29.82 6.641,43.42 11.539,27.37 39.371,46.83 69.004,48.24 29.535,0.48 59.094,0.13 88.641,0.24 H 485.012 839.578 3676.14 c -472.75,-18.7 -945.51,-22.15 -1418.28,-23.37 l -1418.282,-4.07 -177.281,-0.51 -177.285,0.43 -177.285,0.51 -44.325,0.13 -22.164,0.06 -11.078,0.03 -5.535,0.02 -3.965,-0.18 c -19.652,-0.8 -38.465,-13.75 -46.265,-32.09 -1.766,-4.58 -3.493,-9.26 -3.957,-14.21 -0.516,-2.49 -0.317,-4.82 -0.583,-7.56 l -0.035,-11.09 -0.129,-44.32 -0.253,-88.64 -0.508,-177.28 -1.016,-354.58 c -2.988,-472.76 4.414,-945.519 -24.473,-1418.269"
         style="fill:#ffffff;fill-opacity:1;fill-rule:nonzero;stroke:none"
         id="path256" /><path
         d="M 83.7109,946.789 C 68.6016,939.859 56.168,927.02 50.6406,911.211 c -2.1679,-5.992 -3.4101,-12.301 -3.6758,-18.66 -0.1953,-6.36 -0.0546,-12.742 -0.1015,-19.09 V 376.828 l 13.4023,305.621 6.6992,152.801 2.0938,47.762 0.2109,4.769 0.1094,2.27 0.1758,1.527 c 0.4492,4.082 1.5156,7.992 3.1211,11.613 2.4805,5.707 6.3711,10.539 11.0351,14.258 v 29.34"
         style="fill:#ffffff;fill-opacity:1;fill-rule:nonzero;stroke:none"
         id="path258" /><path
         d="m 286.527,245.238 c 0,-27.058 -21.933,-48.988 -48.988,-48.988 -27.055,0 -48.984,21.93 -48.984,48.988 0,27.051 21.929,48.992 48.984,48.992 27.055,0 48.988,-21.941 48.988,-48.992"
         style="fill:#ffffff;fill-opacity:1;fill-rule:nonzero;stroke:none"
         id="path260" /><path
         d="m 225.801,212.48 c -1.684,0 -3.414,0.391 -5.031,1.192 -5.571,2.777 -7.836,9.558 -5.051,15.137 l 23.457,46.972 c 2.781,5.571 9.539,7.848 15.133,5.051 5.57,-2.781 7.836,-9.562 5.05,-15.141 l -23.457,-46.972 c -1.976,-3.949 -5.961,-6.239 -10.101,-6.239"
         style="fill:#272727;fill-opacity:1;fill-rule:nonzero;stroke:none"
         id="path262" /><path
         d="m 261.016,224.238 c -1.692,0 -3.411,0.391 -5.032,1.192 l -46.968,23.449 c -5.575,2.781 -7.84,9.562 -5.055,15.133 2.781,5.578 9.5,7.847 15.137,5.047 l 46.965,-23.45 c 5.574,-2.769 7.839,-9.558 5.054,-15.121 -1.976,-3.957 -5.961,-6.25 -10.101,-6.25"
         style="fill:#272727;fill-opacity:1;fill-rule:nonzero;stroke:none"
         id="path264" /><path
         d="m 302.867,230.441 c 0,-33.703 -27.308,-61.082 -61.015,-61.082 -30.387,0 -55.653,22.313 -60.293,51.43 9.464,-21.519 30.929,-36.59 56.007,-36.59 33.707,0 61.02,27.301 61.02,61.012 0,3.309 -0.242,6.508 -0.781,9.641 3.254,-7.473 5.062,-15.731 5.062,-24.411"
         style="fill:#ffffff;fill-opacity:1;fill-rule:nonzero;stroke:none"
         id="path266" /><path
         d="m 3702.08,235.961 c 0,-27.063 -21.92,-48.992 -48.98,-48.992 -27.06,0 -48.99,21.929 -48.99,48.992 0,27.059 21.93,48.988 48.99,48.988 27.06,0 48.98,-21.929 48.98,-48.988"
         style="fill:#ffffff;fill-opacity:1;fill-rule:nonzero;stroke:none"
         id="path268" /><path
         d="m 3628.37,217.891 c -4.64,0 -8.99,2.879 -10.64,7.5 -2.09,5.879 0.99,12.32 6.86,14.41 l 49.46,17.597 c 5.82,2.114 12.32,-0.988 14.41,-6.847 2.1,-5.871 -0.98,-12.321 -6.85,-14.41 l -49.47,-17.602 c -1.24,-0.449 -2.52,-0.648 -3.77,-0.648"
         style="fill:#272727;fill-opacity:1;fill-rule:nonzero;stroke:none"
         id="path270" /><path
         d="m 3661.89,201.961 c -4.63,0 -8.98,2.879 -10.63,7.5 l -17.6,49.461 c -2.09,5.867 0.99,12.316 6.86,14.418 5.82,2.109 12.31,-0.988 14.4,-6.86 l 17.6,-49.449 c 2.09,-5.883 -0.99,-12.32 -6.85,-14.41 -1.25,-0.449 -2.53,-0.66 -3.78,-0.66"
         style="fill:#272727;fill-opacity:1;fill-rule:nonzero;stroke:none"
         id="path272" /><path
         d="m 3718.43,222.012 c 0,-34.172 -27.32,-61.922 -61.02,-61.922 -30.39,0 -55.65,22.609 -60.29,52.14 9.46,-21.82 30.93,-37.101 56.01,-37.101 33.7,0 61.01,27.691 61.01,61.859 0,3.364 -0.23,6.602 -0.78,9.782 3.25,-7.579 5.07,-15.95 5.07,-24.758"
         style="fill:#ffffff;fill-opacity:1;fill-rule:nonzero;stroke:none"
         id="path274" /><path
         d="m 286.527,2307.5 c 0,-27.05 -21.933,-48.98 -48.988,-48.98 -27.055,0 -48.984,21.93 -48.984,48.98 0,27.05 21.929,48.99 48.984,48.99 27.055,0 48.988,-21.94 48.988,-48.99"
         style="fill:#ffffff;fill-opacity:1;fill-rule:nonzero;stroke:none"
         id="path276" /><path
         d="m 225.801,2274.74 c -1.684,0 -3.414,0.39 -5.031,1.19 -5.571,2.78 -7.836,9.56 -5.051,15.13 l 23.457,46.98 c 2.781,5.56 9.539,7.84 15.133,5.05 5.57,-2.79 7.836,-9.56 5.05,-15.14 l -23.457,-46.97 c -1.976,-3.95 -5.961,-6.24 -10.101,-6.24"
         style="fill:#272727;fill-opacity:1;fill-rule:nonzero;stroke:none"
         id="path278" /><path
         d="m 261.016,2286.51 c -1.692,0 -3.411,0.38 -5.032,1.19 l -46.968,23.44 c -5.575,2.79 -7.84,9.57 -5.055,15.14 2.781,5.56 9.5,7.85 15.137,5.05 l 46.965,-23.45 c 5.574,-2.78 7.839,-9.56 5.054,-15.13 -1.976,-3.96 -5.961,-6.24 -10.101,-6.24"
         style="fill:#272727;fill-opacity:1;fill-rule:nonzero;stroke:none"
         id="path280" /><path
         d="m 302.867,2292.7 c 0,-33.7 -27.308,-61.07 -61.015,-61.07 -30.387,0 -55.653,22.3 -60.293,51.42 9.464,-21.52 30.929,-36.6 56.007,-36.6 33.707,0 61.02,27.32 61.02,61.02 0,3.32 -0.242,6.51 -0.781,9.65 3.254,-7.48 5.062,-15.74 5.062,-24.42"
         style="fill:#ffffff;fill-opacity:1;fill-rule:nonzero;stroke:none"
         id="path282" /><path
         d="m 3702.08,2298.23 c 0,-27.06 -21.92,-49 -48.98,-49 -27.06,0 -48.99,21.94 -48.99,49 0,27.05 21.93,48.98 48.99,48.98 27.06,0 48.98,-21.93 48.98,-48.98"
         style="fill:#ffffff;fill-opacity:1;fill-rule:nonzero;stroke:none"
         id="path284" /><path
         d="m 3628.37,2280.15 c -4.64,0 -8.99,2.89 -10.64,7.51 -2.09,5.87 0.99,12.32 6.86,14.41 l 49.46,17.59 c 5.87,2.11 12.32,-0.98 14.41,-6.86 2.1,-5.86 -0.98,-12.32 -6.85,-14.4 l -49.47,-17.59 c -1.25,-0.45 -2.52,-0.66 -3.77,-0.66"
         style="fill:#272727;fill-opacity:1;fill-rule:nonzero;stroke:none"
         id="path286" /><path
         d="m 3661.89,2264.22 c -4.63,0 -8.98,2.88 -10.63,7.5 l -17.6,49.46 c -2.09,5.87 0.99,12.32 6.86,14.41 5.82,2.11 12.31,-0.98 14.4,-6.84 l 17.6,-49.46 c 2.09,-5.88 -0.99,-12.33 -6.85,-14.42 -1.25,-0.44 -2.53,-0.65 -3.78,-0.65"
         style="fill:#272727;fill-opacity:1;fill-rule:nonzero;stroke:none"
         id="path288" /><path
         d="m 3718.43,2284.27 c 0,-34.17 -27.32,-61.92 -61.02,-61.92 -30.39,0 -55.65,22.61 -60.29,52.14 9.46,-21.83 30.93,-37.11 56.01,-37.11 33.7,0 61.01,27.69 61.01,61.87 0,3.36 -0.23,6.6 -0.78,9.78 3.25,-7.58 5.07,-15.96 5.07,-24.76"
         style="fill:#ffffff;fill-opacity:1;fill-rule:nonzero;stroke:none"
         id="path290" /><path
         d="m 1097.56,1689.32 c -98.826,0 -179.232,-80.39 -179.232,-179.22 0,-98.83 80.406,-179.24 179.232,-179.24 98.83,0 179.25,80.41 179.25,179.24 0,98.83 -80.42,179.22 -179.25,179.22 z m 0,-388.55 c -115.415,0 -209.306,93.9 -209.306,209.33 0,115.41 93.891,209.31 209.306,209.31 115.42,0 209.32,-93.9 209.32,-209.31 0,-115.43 -93.9,-209.33 -209.32,-209.33"
         style="fill:#272727;fill-opacity:1;fill-rule:nonzero;stroke:none"
         id="path292" /><path
         d="m 1133.83,1621.54 h -72.58 v 72.59 h 72.58 v -72.59"
         style="fill:#272727;fill-opacity:1;fill-rule:nonzero;stroke:none"
         id="path294" /><path
         d="m 1216.07,1532.16 -36.29,62.85 62.86,36.3 36.29,-62.86 -62.86,-36.29"
         style="fill:#272727;fill-opacity:1;fill-rule:nonzero;stroke:none"
         id="path296" /><path
         d="m 1179.78,1420.71 36.29,62.86 62.86,-36.3 -36.29,-62.85 -62.86,36.29"
         style="fill:#272727;fill-opacity:1;fill-rule:nonzero;stroke:none"
         id="path298" /><path
         d="m 1061.25,1394.18 h 72.58 v -72.59 h -72.58 v 72.59"
         style="fill:#272727;fill-opacity:1;fill-rule:nonzero;stroke:none"
         id="path300" /><path
         d="m 979.008,1483.57 36.292,-62.86 -62.855,-36.29 -36.293,62.85 62.856,36.3"
         style="fill:#272727;fill-opacity:1;fill-rule:nonzero;stroke:none"
         id="path302" /><path
         d="m 1015.3,1595.01 -36.292,-62.85 -62.856,36.29 36.293,62.86 62.855,-36.3"
         style="fill:#272727;fill-opacity:1;fill-rule:nonzero;stroke:none"
         id="path304" /><path
         d="m 1097.56,1700.61 c -105.044,0 -190.513,-85.47 -190.513,-190.51 0,-105.05 85.469,-190.52 190.513,-190.52 105.05,0 190.53,85.47 190.53,190.52 0,105.04 -85.48,190.51 -190.53,190.51 z m 0,-388.56 c -109.197,0 -198.029,88.84 -198.029,198.05 0,109.19 88.832,198.03 198.029,198.03 109.2,0 198.05,-88.84 198.05,-198.03 0,-109.21 -88.85,-198.05 -198.05,-198.05"
         style="fill:#272727;fill-opacity:1;fill-rule:nonzero;stroke:none"
         id="path306" /><path
         d="m 2754.4,1689.32 c -98.82,0 -179.22,-80.39 -179.22,-179.22 0,-98.83 80.4,-179.24 179.22,-179.24 98.84,0 179.24,80.41 179.24,179.24 0,98.83 -80.4,179.22 -179.24,179.22 z m 0,-388.55 c -115.42,0 -209.3,93.9 -209.3,209.33 0,115.41 93.88,209.31 209.3,209.31 115.43,0 209.32,-93.9 209.32,-209.31 0,-115.43 -93.89,-209.33 -209.32,-209.33"
         style="fill:#272727;fill-opacity:1;fill-rule:nonzero;stroke:none"
         id="path308" /><path
         d="m 2790.7,1621.54 h -72.58 v 72.59 h 72.58 v -72.59"
         style="fill:#272727;fill-opacity:1;fill-rule:nonzero;stroke:none"
         id="path310" /><path
         d="m 2872.94,1532.16 -36.29,62.85 62.85,36.3 36.3,-62.86 -62.86,-36.29"
         style="fill:#272727;fill-opacity:1;fill-rule:nonzero;stroke:none"
         id="path312" /><path
         d="m 2836.65,1420.71 36.29,62.86 62.86,-36.3 -36.3,-62.85 -62.85,36.29"
         style="fill:#272727;fill-opacity:1;fill-rule:nonzero;stroke:none"
         id="path314" /><path
         d="m 2718.12,1394.18 h 72.58 v -72.59 h -72.58 v 72.59"
         style="fill:#272727;fill-opacity:1;fill-rule:nonzero;stroke:none"
         id="path316" /><path
         d="m 2635.88,1483.57 36.29,-62.86 -62.85,-36.29 -36.3,62.85 62.86,36.3"
         style="fill:#272727;fill-opacity:1;fill-rule:nonzero;stroke:none"
         id="path318" /><path
         d="m 2672.17,1595.01 -36.29,-62.85 -62.86,36.29 36.3,62.86 62.85,-36.3"
         style="fill:#272727;fill-opacity:1;fill-rule:nonzero;stroke:none"
         id="path320" /><path
         d="m 2754.4,1700.61 c -105.04,0 -190.5,-85.47 -190.5,-190.51 0,-105.05 85.46,-190.52 190.5,-190.52 105.06,0 190.52,85.47 190.52,190.52 0,105.04 -85.46,190.51 -190.52,190.51 z m 0,-388.56 c -109.19,0 -198.02,88.84 -198.02,198.05 0,109.19 88.83,198.03 198.02,198.03 109.21,0 198.04,-88.84 198.04,-198.03 0,-109.21 -88.83,-198.05 -198.04,-198.05"
         style="fill:#272727;fill-opacity:1;fill-rule:nonzero;stroke:none"
         id="path322" /><path
         d="m 1097.56,1700.61 c -105.044,0 -190.513,-85.47 -190.513,-190.51 0,-105.05 85.469,-190.52 190.513,-190.52 105.05,0 190.53,85.47 190.53,190.52 0,105.04 -85.48,190.51 -190.53,190.51 z m 0,-388.56 c -109.197,0 -198.029,88.84 -198.029,198.05 0,109.19 88.832,198.03 198.029,198.03 109.2,0 198.05,-88.84 198.05,-198.03 0,-109.21 -88.85,-198.05 -198.05,-198.05 z m 1656.84,388.56 c -105.04,0 -190.5,-85.47 -190.5,-190.51 0,-105.05 85.46,-190.52 190.5,-190.52 105.06,0 190.52,85.47 190.52,190.52 0,105.04 -85.46,190.51 -190.52,190.51 z m 0,-388.56 c -109.19,0 -198.02,88.84 -198.02,198.05 0,109.19 88.83,198.03 198.02,198.03 109.21,0 198.04,-88.84 198.04,-198.03 0,-109.21 -88.83,-198.05 -198.04,-198.05"
         style="fill:#272727;fill-opacity:1;fill-rule:nonzero;stroke:none"
         id="path324" /><path
         d="m 2754.4,1314.99 c -107.31,0 -194.27,86.96 -194.27,194.28 0,107.32 86.96,194.28 194.27,194.28 107.33,0 194.28,-86.96 194.28,-194.28 0,-107.32 -86.95,-194.28 -194.28,-194.28 z m -1129.34,25.13 c 16.68,50.37 25.72,104.23 25.72,160.24 0,54.67 -8.57,107.25 -24.52,156.62 h 436.19 c -15.95,-49.37 -24.52,-101.95 -24.52,-156.62 0,-56.01 8.97,-109.87 25.65,-160.24 z m -527.49,-25.13 c -107.328,0 -194.277,86.96 -194.277,194.28 0,107.32 86.949,194.28 194.277,194.28 107.32,0 194.27,-86.96 194.27,-194.28 0,-107.32 -86.95,-194.28 -194.27,-194.28 z m 1980.14,512.49 H 822.297 c -57.949,0 -104.977,-46.96 -104.977,-104.98 v -473.36 c 0,-22.31 6.965,-43.01 18.758,-59.95 2.477,-3.22 5.027,-6.44 7.57,-9.58 19.227,-21.78 47.364,-35.44 78.649,-35.44 H 3077.71 c 57.94,0 104.91,46.95 104.91,104.97 v 473.36 c 0,58.02 -46.97,104.98 -104.91,104.98"
         style="fill:#272727;fill-opacity:1;fill-rule:nonzero;stroke:none"
         id="path326" /><path
         d="m 1344.03,1479.41 c 0,-111.07 -90.04,-201.04 -201.05,-201.04 -40.26,0 -77.71,11.79 -109.12,32.29 20.1,-6.43 41.53,-9.91 63.71,-9.91 115.69,0 209.41,93.72 209.41,209.41 0,50.58 -17.95,97 -47.77,133.25 51.32,-36.38 84.82,-96.27 84.82,-164"
         style="fill:#ffffff;fill-opacity:1;fill-rule:nonzero;stroke:none"
         id="path328" /><path
         d="m 3010.7,1479.41 c 0,-111.07 -90.04,-201.04 -201.04,-201.04 -40.27,0 -77.71,11.79 -109.13,32.29 20.1,-6.43 41.53,-9.91 63.71,-9.91 115.69,0 209.41,93.72 209.41,209.41 0,50.58 -17.95,97 -47.76,133.25 51.32,-36.38 84.81,-96.27 84.81,-164"
         style="fill:#ffffff;fill-opacity:1;fill-rule:nonzero;stroke:none"
         id="path330" /><path
         d="m 1610.2,1378.44 c 0.72,15.93 2.14,31.43 3.36,46.9 1.12,15.47 2.4,30.84 3.15,46.25 1.01,15.39 1.56,30.8 2.25,46.3 0.59,15.51 1.03,31.07 2.2,46.98 5.05,-15.14 7.91,-30.82 9.52,-46.6 1.72,-15.79 1.82,-31.7 1.04,-47.56 -2.08,-31.63 -8.22,-63.28 -21.52,-92.27"
         style="fill:#ffffff;fill-opacity:1;fill-rule:nonzero;stroke:none"
         id="path332" /><path
         d="m 1588.44,1392.73 c -0.26,13.38 0.4,26.34 1.07,39.24 l 2.12,38.51 c 0.56,12.79 1.95,25.62 2.08,38.46 0.44,12.86 1.41,25.8 3.86,39.12 3.78,-12.68 6.1,-25.75 7.87,-38.89 2.07,-13.15 1.87,-26.4 1.2,-39.59 -1.81,-26.32 -6.81,-52.65 -18.2,-76.85"
         style="fill:#ffffff;fill-opacity:1;fill-rule:nonzero;stroke:none"
         id="path334" /><path
         d="m 1566.68,1407.03 c -1.21,10.78 -1.26,21.18 -1.15,31.52 0.13,10.33 0.44,20.58 1.06,30.8 0.54,10.23 1.47,20.44 2.48,30.72 0.78,10.27 2.1,20.6 4.91,31.18 6.68,-20.43 8.94,-41.73 7.62,-62.77 -0.61,-10.53 -2.11,-21.01 -4.47,-31.32 -2.33,-10.3 -5.54,-20.46 -10.45,-30.13"
         style="fill:#ffffff;fill-opacity:1;fill-rule:nonzero;stroke:none"
         id="path336" /><path
         d="m 2080.73,1620.61 c -1.81,-20.92 -3.76,-41.46 -4.97,-61.99 -1.11,-20.53 -1.85,-40.99 -1.54,-61.46 0.03,-20.48 1.08,-40.93 2.52,-61.43 1.54,-20.51 3.8,-41.01 5.93,-61.9 -8.21,19.34 -13.79,39.71 -17.57,60.39 -3.88,20.69 -5.62,41.76 -5.91,62.82 -0.03,21.07 1.4,42.15 4.95,62.9 3.46,20.74 8.71,41.19 16.59,60.67"
         style="fill:#ffffff;fill-opacity:1;fill-rule:nonzero;stroke:none"
         id="path338" /><path
         d="m 2111.55,1615.75 c -1.35,-19.64 -2.96,-38.89 -3.96,-58.11 -0.91,-19.23 -1.56,-38.37 -1.29,-57.53 -0.01,-19.16 0.9,-38.3 2.08,-57.5 1.27,-19.2 3.15,-38.42 4.78,-58.04 -7.71,18.12 -12.92,37.22 -16.43,56.6 -3.61,19.38 -5.21,39.12 -5.47,58.84 0.02,19.73 1.36,39.47 4.71,58.91 3.24,19.42 8.16,38.58 15.58,56.83"
         style="fill:#ffffff;fill-opacity:1;fill-rule:nonzero;stroke:none"
         id="path340" /><path
         d="m 2142.37,1610.89 -2.96,-54.23 c -0.7,-17.92 -1.28,-35.76 -1.03,-53.6 -0.05,-17.84 0.71,-35.67 1.63,-53.57 l 3.65,-54.18 c -7.23,16.91 -12.06,34.72 -15.31,52.8 -3.34,18.08 -4.79,36.48 -5.01,54.88 0.06,18.39 1.31,36.79 4.44,54.91 3.04,18.1 7.62,35.97 14.59,52.99"
         style="fill:#ffffff;fill-opacity:1;fill-rule:nonzero;stroke:none"
         id="path342" /><path
         d="m 2173.19,1606.03 -1.96,-50.35 c -0.49,-16.61 -0.98,-33.14 -0.77,-49.67 -0.08,-16.53 0.54,-33.04 1.19,-49.64 l 2.51,-50.31 c -6.75,15.7 -11.19,32.23 -14.18,49 -3.08,16.78 -4.37,33.84 -4.55,50.9 0.09,17.05 1.25,34.11 4.17,50.91 2.82,16.79 7.07,33.37 13.59,49.16"
         style="fill:#ffffff;fill-opacity:1;fill-rule:nonzero;stroke:none"
         id="path344" /><path
         d="m 2204,1601.17 c 0.04,-15.78 -0.57,-31.14 -0.95,-46.46 -0.29,-15.31 -0.69,-30.53 -0.51,-45.75 -0.11,-15.22 0.36,-30.43 0.76,-45.73 0.49,-15.31 1.23,-30.65 1.36,-46.43 -6.26,14.49 -10.31,29.75 -13.04,45.21 -2.82,15.47 -3.96,31.2 -4.11,46.92 0.13,15.71 1.19,31.43 3.9,46.92 2.61,15.47 6.52,30.75 12.59,45.32"
         style="fill:#ffffff;fill-opacity:1;fill-rule:nonzero;stroke:none"
         id="path346" /><path
         d="m 2234.82,1596.31 c 0.5,-14.47 0.21,-28.54 0.04,-42.56 -0.07,-14.01 -0.39,-27.93 -0.24,-41.85 -0.13,-13.91 0.2,-27.81 0.33,-41.81 0.24,-14.01 0.6,-28.07 0.21,-42.55 -5.77,13.3 -9.44,27.27 -11.89,41.43 -2.56,14.16 -3.55,28.56 -3.68,42.94 0.16,14.36 1.12,28.74 3.62,42.91 2.41,14.15 5.98,28.14 11.61,41.49"
         style="fill:#ffffff;fill-opacity:1;fill-rule:nonzero;stroke:none"
         id="path348" /><path
         d="m 2265.64,1591.45 c 0.95,-13.16 0.99,-25.93 1.03,-38.65 l 0.05,-37.95 -0.1,-37.92 c -0.04,-12.71 -0.06,-25.48 -0.96,-38.65 -5.27,12.11 -8.55,24.81 -10.74,37.66 -2.18,12.86 -3.31,25.9 -3.24,38.94 0.01,13.03 1.15,26.05 3.34,38.9 2.19,12.84 5.43,25.54 10.62,37.67"
         style="fill:#ffffff;fill-opacity:1;fill-rule:nonzero;stroke:none"
         id="path350" /><path
         d="m 2296.46,1586.59 c 1.4,-11.83 1.76,-23.31 2.02,-34.73 0.24,-11.42 0.38,-22.75 0.33,-34.07 -0.01,-11.32 -0.24,-22.64 -0.52,-34.05 -0.3,-11.41 -0.7,-22.88 -2.13,-34.71 -4.77,10.93 -7.65,22.35 -9.58,33.89 -1.91,11.54 -2.9,23.24 -2.81,34.92 0.03,11.69 1.07,23.37 3.05,34.9 1.97,11.52 4.88,22.92 9.64,33.85"
         style="fill:#ffffff;fill-opacity:1;fill-rule:nonzero;stroke:none"
         id="path352" /><path
         d="m 2327.29,1581.73 c 1.83,-10.49 2.51,-20.67 2.97,-30.79 0.46,-10.13 0.7,-20.17 0.64,-30.21 -0.01,-10.04 -0.37,-20.08 -0.92,-30.19 -0.57,-10.13 -1.36,-20.3 -3.32,-30.77 -4.26,9.77 -6.75,19.91 -8.41,30.14 -1.64,10.23 -2.49,20.56 -2.39,30.9 0.04,10.33 0.98,20.66 2.73,30.87 1.77,10.21 4.35,20.32 8.7,30.05"
         style="fill:#ffffff;fill-opacity:1;fill-rule:nonzero;stroke:none"
         id="path354" /><path
         d="m 1994.31,686.91 c 0,-27.051 -21.94,-48.98 -48.99,-48.98 -27.06,0 -48.99,21.929 -48.99,48.98 0,27.059 21.93,48.988 48.99,48.988 27.05,0 48.99,-21.929 48.99,-48.988"
         style="fill:#ffffff;fill-opacity:1;fill-rule:nonzero;stroke:none"
         id="path356" /><path
         d="m 1969.3,666.969 c -1.54,0 -3.09,0.312 -4.58,0.972 l -47.97,21.348 c -5.69,2.531 -8.26,9.191 -5.72,14.891 2.53,5.691 9.19,8.269 14.89,5.718 l 47.97,-21.339 c 5.69,-2.539 8.26,-9.207 5.72,-14.887 -1.87,-4.211 -5.99,-6.703 -10.31,-6.703"
         style="fill:#272727;fill-opacity:1;fill-rule:nonzero;stroke:none"
         id="path358" /><path
         d="m 1934.64,653.66 c -1.53,0 -3.09,0.301 -4.58,0.969 -5.69,2.543 -8.25,9.211 -5.72,14.902 l 21.34,47.957 c 2.54,5.692 9.19,8.262 14.9,5.723 5.69,-2.531 8.26,-9.199 5.72,-14.891 l -21.34,-47.968 c -1.87,-4.204 -6,-6.692 -10.32,-6.692"
         style="fill:#272727;fill-opacity:1;fill-rule:nonzero;stroke:none"
         id="path360" /><path
         d="m 2010.64,672.109 c 0,-33.699 -27.31,-61.078 -61.01,-61.078 -30.39,0 -55.65,22.321 -60.29,51.438 9.46,-21.528 30.93,-36.598 56.01,-36.598 33.7,0 61.02,27.309 61.02,61.008 0,3.32 -0.25,6.519 -0.78,9.652 3.25,-7.48 5.05,-15.742 5.05,-24.422"
         style="fill:#ffffff;fill-opacity:1;fill-rule:nonzero;stroke:none"
         id="path362" /><path
         d="M 1420.53,294.23 H 1358 c -21.58,0 -39.07,17.5 -39.07,39.079 v 87.05 c 0,21.582 17.49,39.082 39.07,39.082 h 62.53 c 21.58,0 39.08,-17.5 39.08,-39.082 v -87.05 c 0,-21.579 -17.5,-39.079 -39.08,-39.079"
         style="fill:#ffffff;fill-opacity:1;fill-rule:nonzero;stroke:none"
         id="path364" /><path
         d="m 1513.18,403.41 v -88.922 c 0,-37.066 -29.54,-67.238 -65.85,-67.238 h -62.51 c -17.68,0 -33.76,7.121 -45.68,18.738 5.96,-1.84 12.32,-2.797 18.89,-2.797 h 62.5 c 36.31,0 65.85,30.239 65.85,67.309 v 88.84 c 0,19.019 -7.77,36.191 -20.16,48.5 27.13,-8.352 46.96,-34.059 46.96,-64.43"
         style="fill:#ffffff;fill-opacity:1;fill-rule:nonzero;stroke:none"
         id="path366" /><path
         d="m 2488.41,294.23 h -62.53 c -21.58,0 -39.07,17.5 -39.07,39.079 v 87.05 c 0,21.582 17.49,39.082 39.07,39.082 h 62.53 c 21.58,0 39.08,-17.5 39.08,-39.082 v -87.05 c 0,-21.579 -17.5,-39.079 -39.08,-39.079"
         style="fill:#ffffff;fill-opacity:1;fill-rule:nonzero;stroke:none"
         id="path368" /><path
         d="m 2581.05,403.41 v -88.922 c 0,-37.066 -29.54,-67.238 -65.84,-67.238 h -62.5 c -17.69,0 -33.77,7.121 -45.7,18.738 5.97,-1.84 12.33,-2.797 18.9,-2.797 h 62.5 c 36.31,0 65.85,30.239 65.85,67.309 v 88.84 c 0,19.019 -7.77,36.191 -20.17,48.5 27.14,-8.352 46.96,-34.059 46.96,-64.43"
         style="fill:#ffffff;fill-opacity:1;fill-rule:nonzero;stroke:none"
         id="path370" /><path
         d="m 2030.38,227.211 h -170.13 c -18.18,0 -32.93,14.738 -32.93,32.918 v 68.121 c 0,18.18 14.75,32.93 32.93,32.93 h 170.13 c 18.19,0 32.94,-14.75 32.94,-32.93 v -68.121 c 0,-18.18 -14.75,-32.918 -32.94,-32.918"
         style="fill:#ffffff;fill-opacity:1;fill-rule:nonzero;stroke:none"
         id="path372" /><path
         d="m 2125.49,316.172 v -68.133 c 0,-36.648 -29.82,-66.391 -66.46,-66.391 h -170.09 c -14.74,0 -28.34,4.821 -39.33,12.864 3.49,-0.543 7.04,-0.801 10.66,-0.801 h 170.09 c 36.64,0 66.46,29.801 66.46,66.449 v 68.059 c 0,21.972 -10.73,41.48 -27.2,53.59 31.62,-5.079 55.87,-32.61 55.87,-65.637"
         style="fill:#ffffff;fill-opacity:1;fill-rule:nonzero;stroke:none"
         id="path374" /><path
         d="m 1069.31,355.621 c 0,-33.902 -27.49,-61.391 -61.4,-61.391 -33.906,0 -61.39,27.489 -61.39,61.391 0,33.91 27.484,61.391 61.39,61.391 33.91,0 61.4,-27.481 61.4,-61.391"
         style="fill:#ffffff;fill-opacity:1;fill-rule:nonzero;stroke:none"
         id="path376" /><path
         d="m 1105.76,337.801 c 0,-46.551 -37.72,-84.281 -84.28,-84.281 -31.347,0 -58.683,17.089 -73.218,42.48 15.273,-15.27 36.308,-24.719 59.628,-24.719 46.62,0 84.34,37.778 84.34,84.34 0,15.211 -4.09,29.539 -11.12,41.879 15.2,-15.289 24.65,-36.379 24.65,-59.699"
         style="fill:#ffffff;fill-opacity:1;fill-rule:nonzero;stroke:none"
         id="path378" /><path
         d="m 2917.01,355.621 c 0,-33.902 -27.49,-61.391 -61.39,-61.391 -33.91,0 -61.4,27.489 -61.4,61.391 0,33.91 27.49,61.391 61.4,61.391 33.9,0 61.39,-27.481 61.39,-61.391"
         style="fill:#ffffff;fill-opacity:1;fill-rule:nonzero;stroke:none"
         id="path380" /><path
         d="m 2953.47,337.801 c 0,-46.551 -37.73,-84.281 -84.28,-84.281 -31.36,0 -58.69,17.089 -73.22,42.48 15.27,-15.27 36.31,-24.719 59.62,-24.719 46.63,0 84.34,37.778 84.34,84.34 0,15.211 -4.09,29.539 -11.12,41.879 15.2,-15.289 24.66,-36.379 24.66,-59.699"
         style="fill:#ffffff;fill-opacity:1;fill-rule:nonzero;stroke:none"
         id="path382" /><path
         d="m 1614.48,153.512 c 7.85,79.359 25.01,155.988 45.13,231.75 l 3.92,14.429 c 1.87,6.559 4.81,12.809 8.35,18.649 7.12,11.691 17.4,21.441 29.49,27.879 6.05,3.191 12.51,5.621 19.16,7.222 6.42,1.618 14.08,2.11 19.78,2.079 l 29.39,-0.192 c 39.18,-0.359 78.36,-0.199 117.54,-1.199 78.37,-1.277 156.72,-3.379 235.08,-6.641 39.18,-1.679 78.37,-3.457 117.55,-5.867 l 29.39,-1.75 7.34,-0.512 c 2.95,-0.16 5.87,-0.699 8.65,-1.57 5.58,-1.738 10.62,-4.848 14.57,-8.91 1.99,-2.039 3.7,-4.301 5.1,-6.707 l 3.62,-6.453 7.04,-12.957 14.03,-25.934 -18.12,23.274 -9.04,11.636 -4.43,5.84 c -1.31,1.672 -2.81,3.152 -4.45,4.422 -3.29,2.531 -7.14,4.18 -11.07,4.809 -1.97,0.332 -3.95,0.402 -5.9,0.23 l -7.34,-0.508 -29.39,-1.761 c -39.18,-2.411 -78.37,-4.18 -117.55,-5.86 -78.36,-3.262 -156.71,-5.371 -235.08,-6.64 -39.18,-0.989 -78.36,-0.84 -117.54,-1.2 l -29.39,-0.191 c -7.08,0.031 -12.13,-1.438 -17.56,-4.277 -5.08,-2.954 -9.72,-6.891 -12.83,-11.93 -1.57,-2.5 -2.87,-5.172 -3.81,-8.012 l -4.4,-13.75 c -24,-74.621 -50.97,-148.379 -87.23,-219.398"
         style="fill:#ffffff;fill-opacity:1;fill-rule:nonzero;stroke:none"
         id="path384" /><path
         d="m 3155.42,320.23 c -26.02,55.399 -52.47,110.59 -79.01,165.719 -26.75,55.02 -53.26,110.18 -80.46,164.973 -19.23,39.027 -54.97,110.84 -74.02,149.066 -7.8,15.684 -23.73,25.621 -41.25,25.782 l -102.19,0.949 -119.03,0.601 -238.04,1.149 -476.1,1.75 -238.05,0.621 -238.05,-0.09 -466.94,-0.262 C 987.734,830.48 974.449,822.371 967.828,809.422 948.754,772.129 909.121,694.551 888.648,654.02 L 805.684,490.328 722.719,326.641 640.305,162.719 h 45.359 l 75.43,144.242 84.511,162.898 84.516,162.891 c 20.051,38.52 50.992,98 67.262,129.27 6.667,12.832 19.917,20.851 34.377,20.839 l 437.46,-0.25 238.05,-0.089 238.05,0.621 476.1,1.738 238.04,1.16 119.03,0.609 79.72,0.731 c 17.49,0.16 33.59,-9.457 41.7,-24.957 17.09,-32.684 47.04,-89.793 66.65,-126.563 28.62,-54.07 57.94,-107.789 87.02,-161.609 29.28,-53.73 58.65,-107.43 88.46,-160.879 29.73,-53.5 59.78,-106.84 90.43,-159.859 -25.18,55.828 -50.95,111.359 -77.05,166.718"
         style="fill:#ffffff;fill-opacity:1;fill-rule:nonzero;stroke:none"
         id="path386" /><path
         d="M 3661.89,871.621 H 237.539 c -10.383,0 -18.809,8.418 -18.809,18.801 0,10.379 8.426,18.808 18.809,18.808 H 3661.89 c 10.39,0 18.81,-8.429 18.81,-18.808 0,-10.383 -8.42,-18.801 -18.81,-18.801"
         style="fill:#ffffff;fill-opacity:1;fill-rule:nonzero;stroke:none"
         id="path388" /><path
         d="m 2120.26,1657.84 c 56.66,5.87 113.32,8.54 169.98,10.25 l 42.49,0.99 c 1.38,0.05 4.76,0.05 7.11,-0.4 2.59,-0.37 5.13,-1.1 7.57,-2.04 4.89,-1.89 9.29,-4.96 12.86,-8.78 3.58,-3.83 6.33,-8.47 7.91,-13.51 1.69,-4.86 1.71,-11.18 1.69,-13.94 l 1.06,-84.99 c 0.13,-56.66 0.5,-113.32 -0.2,-169.98 l -0.17,-21.25 -0.08,-10.62 -0.05,-5.31 c -0.02,-2.46 -0.28,-5.29 -0.86,-7.87 -2.34,-10.53 -9.49,-19.79 -19.12,-24.49 -4.79,-2.39 -10.13,-3.69 -15.42,-3.78 l -10.91,0.05 -84.99,0.67 -339.96,4.41 -169.99,2.96 -169.98,3.93 169.98,3.93 169.99,2.96 339.96,4.41 84.99,0.68 10.34,0.1 c 1.78,0.08 3.47,0.54 5.01,1.34 3.13,1.56 5.35,4.72 6.04,8.02 0.15,0.89 0.21,1.59 0.22,2.68 l -0.04,5.31 -0.08,10.62 -0.17,21.25 c -0.7,56.66 -0.34,113.32 -0.21,169.98 l 1.06,84.99 c 0.07,4.3 0.09,5.18 -0.4,7.11 -0.49,1.74 -1.4,3.36 -2.61,4.75 -1.21,1.38 -2.71,2.55 -4.42,3.25 -0.85,0.33 -1.72,0.66 -2.65,0.79 -1.12,0.21 -1.31,0.21 -3.48,0.28 l -42.49,0.98 c -56.66,1.72 -113.32,4.39 -169.98,10.27"
         style="fill:#ffffff;fill-opacity:1;fill-rule:nonzero;stroke:none"
         id="path390" /><path
         d="M 3514.25,1990.57 H 3464 v 22.57 h 50.25 v -22.57"
         style="fill:#272727;fill-opacity:1;fill-rule:nonzero;stroke:none"
         id="path392" /></g><text
       xml:space="preserve"
       style="font-style:italic;font-weight:bold;font-size:11px;line-height:1.25;font-family:Ultra;-inkscape-font-specification:'Ultra Bold Italic';letter-spacing:0px;word-spacing:0px;stroke-width:0.75"
       x="143.61087"
       y="-220.16838"
       id="text396"
       transform="scale(1,-1)"><tspan
         sodipodi:role="line"
         id="tspan394"
         x="143.61087"
         y="-220.16838"
         style="font-size:11px;stroke-width:0.75" /></text><text
       xml:space="preserve"
       style="font-style:italic;font-weight:bold;font-size:10.00000025px;line-height:1.25;font-family:Ultra;-inkscape-font-specification:'Ultra Bold Italic';letter-spacing:0px;word-spacing:0px;stroke-width:0.75;"
       x="139.1517"
       y="-220.74913"
       id="text400"
       transform="scale(1,-1)"><tspan
         sodipodi:role="line"
         id="tspan398"
         x="139.1517"
         y="-220.74913"
         style="stroke-width:0.75;font-size:10.00000025px;">FULL STACK WEB DEVELOPER</tspan></text><text
       xml:space="preserve"
       style="font-style:italic;font-weight:bold;font-size:9px;line-height:1.25;font-family:Ultra;-inkscape-font-specification:'Ultra Bold Italic';letter-spacing:0px;word-spacing:0px;stroke-width:0.75"
       x="143.22928"
       y="-206.9724"
       id="text404"
       transform="scale(1,-1)"><tspan
         sodipodi:role="line"
         id="tspan402"
         x="143.22928"
         y="-206.9724"
         style="stroke-width:0.75" /></text><text
       xml:space="preserve"
       style="font-style:italic;font-weight:bold;font-size:9px;line-height:1.25;font-family:Ultra;-inkscape-font-specification:'Ultra Bold Italic';letter-spacing:0px;word-spacing:0px;stroke-width:0.75"
       x="142.3877"
       y="-204.12791"
       id="text408"
       transform="scale(1,-1)"><tspan
         sodipodi:role="line"
         id="tspan406"
         x="142.3877"
         y="-204.12791"
         style="stroke-width:0.75">GIUSEPPE ADAMO</tspan></text></g></svg>
