<?xml version="1.0" standalone="no"?>
<!DOCTYPE svg PUBLIC "-//W3C//DTD SVG 20010904//EN"
 "http://www.w3.org/TR/2001/REC-SVG-20010904/DTD/svg10.dtd">
<svg version="1.0" xmlns="http://www.w3.org/2000/svg"
 width="200.000000pt" height="200.000000pt" viewBox="0 0 200.000000 200.000000"
 preserveAspectRatio="xMidYMid meet">

<g transform="translate(0.000000,200.000000) scale(0.100000,-0.100000)"
fill="#000000" stroke="none">
<path d="M531 1779 c-107 -60 -200 -114 -206 -119 -7 -6 -49 -74 -95 -153 -46
-78 -90 -153 -99 -167 -9 -13 -11 -22 -6 -19 342 195 604 339 614 339 7 0 87
-43 179 -97 273 -157 460 -263 466 -263 4 0 5 50 4 112 l-3 112 -320 182
c-176 101 -324 183 -330 183 -5 1 -98 -49 -204 -110z"/>
<path d="M950 1831 c58 -32 193 -108 300 -167 l195 -109 3 -372 2 -371 100 56
100 56 0 367 0 368 -27 19 c-16 10 -107 62 -204 115 l-175 97 -200 0 -199 0
105 -59z"/>
<path d="M430 1411 l-325 -187 -3 -234 -2 -235 97 -167 98 -166 5 345 5 346
120 70 c66 38 208 119 315 179 107 61 199 114 203 118 5 4 -27 27 -70 50 -43
24 -87 49 -98 55 -18 11 -58 -10 -345 -174z"/>
<path d="M1700 1217 l0 -343 -187 -111 c-104 -61 -250 -145 -326 -188 l-138
-77 96 -54 c52 -30 99 -54 103 -54 4 0 151 83 327 184 l320 183 3 237 2 237
-96 164 c-53 91 -98 165 -100 165 -2 0 -4 -154 -4 -343z"/>
<path d="M1156 1280 c-45 -40 -66 -102 -73 -216 -10 -159 26 -295 89 -334 38
-24 89 -21 119 6 12 11 19 13 19 5 0 -7 10 -11 23 -9 21 3 22 6 22 128 0 122
-1 125 -22 128 -22 3 -23 1 -23 -82 0 -66 -3 -86 -14 -86 -29 0 -41 61 -41
205 0 164 12 208 54 203 39 -4 34 31 -8 59 -49 33 -102 31 -145 -7z m96 -67
c-24 -55 -24 -321 1 -377 14 -31 14 -36 2 -26 -50 42 -58 343 -11 416 24 35
27 29 8 -13z"/>
<path d="M756 1281 c-5 -8 -106 -527 -106 -545 0 -3 9 -6 20 -6 11 0 20 7 20
15 0 10 10 15 34 15 21 0 36 -6 40 -15 7 -20 154 -22 161 -2 2 6 -21 131 -53
277 -57 263 -57 265 -84 268 -14 2 -29 -1 -32 -7z m49 -43 c28 -120 95 -447
95 -462 0 -54 -21 20 -65 229 -26 127 -50 236 -52 243 -3 6 0 12 6 12 6 0 13
-10 16 -22z m-61 -381 c7 -46 7 -47 -19 -47 -19 0 -26 4 -22 13 3 8 9 40 13
73 8 64 14 56 28 -39z"/>
<path d="M438 1161 l-98 -55 0 -372 0 -372 200 -111 199 -111 198 2 198 3
-297 164 -298 164 -2 372 -3 371 -97 -55z"/>
<path d="M610 588 l1 -113 316 -180 c175 -98 324 -179 333 -179 9 0 106 51
215 113 l200 113 90 154 c50 85 92 160 94 166 2 6 -20 -2 -50 -19 -30 -17
-165 -93 -301 -170 l-246 -141 -274 155 c-150 85 -297 168 -325 185 l-53 29 0
-113z"/>
</g>
</svg>
