<?xml version="1.0" standalone="no"?>
<!DOCTYPE svg PUBLIC "-//W3C//DTD SVG 20010904//EN"
 "http://www.w3.org/TR/2001/REC-SVG-20010904/DTD/svg10.dtd">
<svg version="1.0" xmlns="http://www.w3.org/2000/svg"
 width="200.000000pt" height="200.000000pt" viewBox="0 0 200.000000 200.000000"
 preserveAspectRatio="xMidYMid meet">

<g transform="translate(0.000000,200.000000) scale(0.100000,-0.100000)"
fill="#000000" stroke="none">
<path d="M902 1288 c-18 -11 -40 -34 -48 -51 l-16 -30 57 32 56 32 53 -31 c62
-35 66 -36 66 -12 0 18 -97 83 -122 81 -7 0 -28 -10 -46 -21z"/>
<path d="M1002 1297 c9 -7 30 -20 47 -29 30 -17 31 -19 31 -89 0 -61 2 -70 16
-65 9 3 18 6 20 6 2 0 4 35 4 78 l0 78 -35 17 c-43 21 -110 24 -83 4z"/>
<path d="M892 1222 c-61 -36 -62 -37 -62 -80 0 -24 8 -57 18 -75 l17 -32 6 70
5 70 2 -80 2 -80 40 -22 c21 -13 54 -23 72 -23 l33 0 -25 21 c-24 20 -24 20
12 0 l37 -22 40 25 c22 14 47 39 56 56 l16 30 -49 -30 c-27 -16 -55 -30 -63
-30 -8 0 -36 14 -64 30 -27 16 -53 30 -57 30 -14 0 -8 -23 10 -43 16 -19 16
-20 -5 -8 -21 10 -23 19 -23 82 0 44 -4 68 -10 64 -5 -3 -10 -4 -10 -1 0 2 23
18 51 34 47 27 50 31 32 40 -15 9 -31 4 -81 -26z"/>
<path d="M1130 1180 l0 -65 -62 -34 c-56 -31 -60 -35 -41 -44 17 -7 35 -2 82
24 l61 34 0 50 c0 34 -7 58 -20 75 l-20 25 0 -65z"/>
<path d="M119 883 c-8 -9 -14 -37 -14 -63 0 -60 17 -80 66 -80 35 0 39 3 39
24 0 13 3 31 6 40 4 11 0 16 -14 16 -16 0 -20 -6 -19 -26 3 -37 -29 -56 -49
-29 -20 27 -15 95 9 109 15 9 22 7 37 -11 23 -29 30 -29 30 1 0 36 -66 50 -91
19z"/>
<path d="M1271 883 c-5 -10 -12 -40 -16 -68 -4 -27 -14 -56 -23 -62 -13 -11
-13 -13 2 -19 20 -8 31 1 31 24 0 10 8 17 20 17 12 0 20 -7 20 -17 0 -23 11
-32 32 -24 16 7 16 8 2 17 -11 5 -19 29 -24 65 -10 86 -23 105 -44 67z m29
-70 c0 -7 -7 -13 -16 -13 -11 0 -14 5 -10 16 3 9 6 21 6 27 0 16 20 -14 20
-30z"/>
<path d="M275 880 c-3 -6 1 -13 10 -16 19 -8 30 0 20 15 -8 14 -22 14 -30 1z"/>
<path d="M1420 883 c35 -14 33 -49 -2 -38 -46 15 -79 -64 -40 -97 10 -9 35
-16 60 -16 40 1 53 10 32 23 -5 3 -10 35 -10 71 0 63 0 64 -27 63 -17 0 -22
-3 -13 -6z m19 -67 c8 -10 8 -21 1 -40 -13 -35 -53 -33 -58 2 -6 42 33 68 57
38z"/>
<path d="M366 842 c-3 -6 1 -12 8 -15 9 -4 16 -23 18 -49 l3 -43 53 -2 c28 -1
52 3 52 8 0 5 -4 9 -10 9 -5 0 -10 20 -10 45 0 32 -5 47 -15 52 -9 3 -19 2
-23 -2 -4 -4 -1 -10 6 -12 17 -6 15 -58 -3 -73 -25 -21 -44 -4 -47 41 -3 40
-19 61 -32 41z"/>
<path d="M525 829 c-9 -26 2 -37 40 -41 19 -2 30 -9 30 -18 0 -22 -44 -25 -60
-3 -13 17 -14 16 -15 -9 0 -24 3 -26 37 -23 46 5 72 28 54 49 -7 8 -24 16 -38
18 -35 4 -43 28 -10 28 14 0 27 -6 30 -12 2 -7 8 -10 12 -6 17 16 -5 38 -39
38 -26 0 -36 -5 -41 -21z"/>
<path d="M658 839 c-24 -14 -24 -71 0 -92 19 -18 40 -21 66 -11 28 11 17 21
-21 20 -28 -1 -38 3 -38 14 0 10 12 16 38 18 29 3 37 7 37 22 0 33 -48 49 -82
29z m62 -24 c11 -13 7 -15 -24 -15 -34 0 -44 8 -29 23 11 12 40 8 53 -8z"/>
<path d="M1058 839 c-24 -14 -24 -71 0 -92 22 -21 55 -22 71 -3 9 11 4 13 -26
12 -28 -1 -38 3 -38 14 0 10 12 16 38 18 40 3 48 20 21 46 -18 18 -41 20 -66
5z m60 -26 c2 -9 -7 -13 -27 -13 -30 0 -39 9 -24 24 11 10 46 3 51 -11z"/>
<path d="M1515 840 c-3 -6 -4 -19 0 -29 3 -11 1 -22 -5 -26 -14 -9 -12 -42 3
-48 20 -8 107 4 107 15 0 5 -4 7 -9 4 -9 -6 -21 26 -21 60 0 30 -60 49 -75 24z
m56 -25 c0 -5 -9 -11 -21 -13 -15 -3 -18 1 -14 13 7 17 35 17 35 0z m7 -42
c-4 -21 -45 -30 -61 -14 -7 7 -3 13 14 20 37 15 51 13 47 -6z"/>
<path d="M1655 840 c-19 -3 -25 -8 -18 -13 14 -9 14 -67 0 -84 -7 -10 -4 -13
12 -13 19 0 21 5 19 41 -2 29 1 43 11 47 11 4 13 -5 9 -40 l-5 -45 44 -1 c33
0 41 3 34 12 -5 6 -11 31 -13 56 -3 42 -5 45 -33 45 -16 1 -43 -1 -60 -5z m75
-55 c0 -19 -4 -35 -10 -35 -5 0 -10 16 -10 35 0 19 5 35 10 35 6 0 10 -16 10
-35z"/>
<path d="M1814 840 c-31 -12 -37 -66 -11 -91 58 -53 132 26 77 81 -22 22 -33
23 -66 10z m60 -32 c23 -38 -35 -78 -61 -42 -17 23 -16 29 3 49 20 19 43 16
58 -7z"/>
<path d="M244 833 c4 -5 18 -8 29 -8 18 0 23 -7 25 -37 3 -35 1 -38 -22 -38
-14 0 -28 -5 -31 -10 -4 -7 15 -9 54 -8 61 3 82 14 39 20 -19 2 -24 10 -26 46
-3 41 -4 42 -39 42 -20 0 -33 -3 -29 -7z"/>
<path d="M768 828 c14 -14 16 -128 2 -128 -5 0 -10 -4 -10 -10 0 -5 11 -10 25
-10 26 0 35 15 13 22 -21 7 -1 37 22 31 25 -7 60 22 60 49 0 44 -18 58 -72 58
-41 0 -49 -3 -40 -12z m87 -14 c9 -9 14 -23 11 -31 -3 -8 -6 -18 -6 -23 0 -12
-28 -20 -45 -14 -15 6 -21 64 -8 77 11 12 31 8 48 -9z"/>
<path d="M903 829 c13 -8 17 -23 17 -69 0 -33 -4 -60 -10 -60 -5 0 -10 -4 -10
-10 0 -5 11 -10 25 -10 14 0 25 5 25 10 0 6 -4 10 -10 10 -5 0 -10 8 -10 18 0
15 6 18 29 14 37 -5 65 32 55 72 -7 29 -21 35 -84 35 -35 0 -41 -3 -27 -10z
m85 -11 c32 -32 1 -89 -37 -68 -33 17 -22 80 14 80 6 0 16 -5 23 -12z"/>
</g>
</svg>
